<?xml version="1.0" encoding="UTF-8"?>
<!DOCTYPE svg PUBLIC "-//W3C//DTD SVG 1.1//EN" "http://www.w3.org/Graphics/SVG/1.1/DTD/svg11.dtd">
<svg xmlns="http://www.w3.org/2000/svg" version="1.1" width="612px" height="408px" style="shape-rendering:geometricPrecision; text-rendering:geometricPrecision; image-rendering:optimizeQuality; fill-rule:evenodd; clip-rule:evenodd" xmlns:xlink="http://www.w3.org/1999/xlink">
<g><path style="opacity:1" fill="#7b6b4a" d="M 337.5,44.5 C 331.008,43.7984 324.341,43.7984 317.5,44.5C 324.293,42.5177 331.293,42.1843 338.5,43.5C 338.376,44.1067 338.043,44.44 337.5,44.5 Z"/></g>
<g><path style="opacity:1" fill="#b98e38" d="M 283.5,53.5 C 292.366,50.434 301.366,47.7674 310.5,45.5C 311.622,46.1558 312.955,46.4892 314.5,46.5C 321.16,45.7007 327.827,45.034 334.5,44.5C 334.719,45.675 334.386,46.675 333.5,47.5C 332.305,49.297 330.638,50.297 328.5,50.5C 328.675,53.3289 327.342,54.9955 324.5,55.5C 324.023,56.931 323.357,58.2643 322.5,59.5C 320.95,57.5721 319.283,55.7387 317.5,54C 312.638,52.5241 310.471,54.3574 311,59.5C 310.517,58.552 310.351,57.552 310.5,56.5C 307.881,56.2317 305.381,56.565 303,57.5C 299.655,52.0073 297.155,52.3406 295.5,58.5C 294.808,57.9747 294.308,57.3081 294,56.5C 290.841,57.745 291.007,58.9116 294.5,60C 290.209,63.1057 285.543,65.6057 280.5,67.5C 278.517,66.5303 276.517,65.5303 274.5,64.5C 275.881,62.3651 276.881,60.0318 277.5,57.5C 280.256,57.1338 282.256,55.8005 283.5,53.5 Z"/></g>
<g><path style="opacity:1" fill="#aa873f" d="M 337.5,44.5 C 333.767,49.7405 329.434,54.5738 324.5,59C 330.93,62.603 336.597,67.103 341.5,72.5C 339.194,72.0074 336.861,71.6741 334.5,71.5C 334.5,70.5 334.5,69.5 334.5,68.5C 330.639,66.3766 326.639,65.2099 322.5,65C 319.877,62.2139 317.877,59.0472 316.5,55.5C 315.167,55.5 313.833,55.5 312.5,55.5C 312.986,57.8067 312.986,59.9734 312.5,62C 314.619,62.3418 314.953,63.1751 313.5,64.5C 310.87,63.5722 308.204,62.5722 305.5,61.5C 307.803,58.5975 306.803,57.7642 302.5,59C 291.146,63.0523 281.146,69.219 272.5,77.5C 272.5,75.8333 272.5,74.1667 272.5,72.5C 273.833,72.5 275.167,72.5 276.5,72.5C 276.66,70.8008 276.494,69.1341 276,67.5C 274.84,69.797 273.84,69.4637 273,66.5C 271.989,67.3366 270.822,67.67 269.5,67.5C 269.626,65.8002 270.293,64.3002 271.5,63C 269.265,61.3547 268.265,62.1881 268.5,65.5C 267.178,65.67 266.011,65.3366 265,64.5C 262.693,65.8331 260.859,67.6664 259.5,70C 260.337,71.0113 260.67,72.1779 260.5,73.5C 258.669,72.9478 257.003,72.9478 255.5,73.5C 251.951,77.4098 248.284,81.0765 244.5,84.5C 253.668,69.7012 266.668,59.3678 283.5,53.5C 282.256,55.8005 280.256,57.1338 277.5,57.5C 276.881,60.0318 275.881,62.3651 274.5,64.5C 276.517,65.5303 278.517,66.5303 280.5,67.5C 285.543,65.6057 290.209,63.1057 294.5,60C 291.007,58.9116 290.841,57.745 294,56.5C 294.308,57.3081 294.808,57.9747 295.5,58.5C 297.155,52.3406 299.655,52.0073 303,57.5C 305.381,56.565 307.881,56.2317 310.5,56.5C 310.351,57.552 310.517,58.552 311,59.5C 310.471,54.3574 312.638,52.5241 317.5,54C 319.283,55.7387 320.95,57.5721 322.5,59.5C 323.357,58.2643 324.023,56.931 324.5,55.5C 327.342,54.9955 328.675,53.3289 328.5,50.5C 330.638,50.297 332.305,49.297 333.5,47.5C 334.386,46.675 334.719,45.675 334.5,44.5C 327.827,45.034 321.16,45.7007 314.5,46.5C 312.955,46.4892 311.622,46.1558 310.5,45.5C 312.607,44.5318 314.941,44.1984 317.5,44.5C 324.341,43.7984 331.008,43.7984 337.5,44.5 Z"/></g>
<g><path style="opacity:1" fill="#bb8f36" d="M 272.5,77.5 C 272.167,77.5 271.833,77.5 271.5,77.5C 270.88,75.0233 269.88,75.0233 268.5,77.5C 266.471,76.3707 266.137,76.8707 267.5,79C 266.552,79.4828 265.552,79.6495 264.5,79.5C 264.286,81.1439 264.62,82.6439 265.5,84C 264.109,85.02 262.609,85.8534 261,86.5C 260.118,90.9588 257.784,94.2922 254,96.5C 254.437,101.622 252.27,104.955 247.5,106.5C 245.154,96.1207 243.821,96.1207 243.5,106.5C 241.87,108.026 241.037,110.026 241,112.5C 240.333,111.167 239.667,111.167 239,112.5C 237.956,111.377 237.29,110.044 237,108.5C 236.577,109.956 235.744,110.456 234.5,110C 236.257,104.322 238.424,98.8217 241,93.5C 241.308,94.3081 241.808,94.9747 242.5,95.5C 243.313,91.8384 243.979,88.1718 244.5,84.5C 248.284,81.0765 251.951,77.4098 255.5,73.5C 257.003,72.9478 258.669,72.9478 260.5,73.5C 260.67,72.1779 260.337,71.0113 259.5,70C 260.859,67.6664 262.693,65.8331 265,64.5C 266.011,65.3366 267.178,65.67 268.5,65.5C 268.265,62.1881 269.265,61.3547 271.5,63C 270.293,64.3002 269.626,65.8002 269.5,67.5C 270.822,67.67 271.989,67.3366 273,66.5C 273.84,69.4637 274.84,69.797 276,67.5C 276.494,69.1341 276.66,70.8008 276.5,72.5C 275.167,72.5 273.833,72.5 272.5,72.5C 272.5,74.1667 272.5,75.8333 272.5,77.5 Z"/></g>
<g><path style="opacity:1" fill="#b68d38" d="M 341.5,72.5 C 343.19,72.8564 344.19,73.8564 344.5,75.5C 344.5,76.5 344.5,77.5 344.5,78.5C 345.5,78.5 346.5,78.5 347.5,78.5C 347.34,80.1992 347.506,81.8659 348,83.5C 349.706,84.3079 350.539,85.6412 350.5,87.5C 348.079,87.1218 345.746,86.4552 343.5,85.5C 342.045,82.8181 340.711,80.1514 339.5,77.5C 337.94,77.4809 336.44,77.1476 335,76.5C 332.402,72.9126 328.902,70.9126 324.5,70.5C 320.634,68.736 316.967,66.736 313.5,64.5C 314.953,63.1751 314.619,62.3418 312.5,62C 312.986,59.9734 312.986,57.8067 312.5,55.5C 313.833,55.5 315.167,55.5 316.5,55.5C 317.877,59.0472 319.877,62.2139 322.5,65C 326.639,65.2099 330.639,66.3766 334.5,68.5C 334.5,69.5 334.5,70.5 334.5,71.5C 336.861,71.6741 339.194,72.0074 341.5,72.5 Z"/></g>
<g><path style="opacity:1" fill="#977c3f" d="M 324.5,70.5 C 328.902,70.9126 332.402,72.9126 335,76.5C 336.44,77.1476 337.94,77.4809 339.5,77.5C 340.711,80.1514 342.045,82.8181 343.5,85.5C 336.946,80.7299 330.613,75.7299 324.5,70.5 Z"/></g>
<g><path style="opacity:1" fill="#8b7246" d="M 295.5,98.5 C 294.603,99.5981 293.77,99.5981 293,98.5C 292.466,102.859 292.632,107.192 293.5,111.5C 291.839,109.367 290.839,106.867 290.5,104C 291.127,100.314 292.127,96.8143 293.5,93.5C 294.675,93.281 295.675,93.6143 296.5,94.5C 295.754,95.7362 295.421,97.0695 295.5,98.5 Z"/></g>
<g><path style="opacity:1" fill="#ad8840" d="M 344.5,75.5 C 355.833,85.1578 364.5,96.8245 370.5,110.5C 370.286,112.144 370.62,113.644 371.5,115C 370.552,115.483 369.552,115.649 368.5,115.5C 368.176,112.181 366.509,109.848 363.5,108.5C 357.551,100.217 350.884,92.5501 343.5,85.5C 345.746,86.4552 348.079,87.1218 350.5,87.5C 350.539,85.6412 349.706,84.3079 348,83.5C 347.506,81.8659 347.34,80.1992 347.5,78.5C 346.5,78.5 345.5,78.5 344.5,78.5C 344.5,77.5 344.5,76.5 344.5,75.5 Z"/></g>
<g><path style="opacity:1" fill="#aa863e" d="M 271.5,77.5 C 268.882,81.2907 266.049,84.9574 263,88.5C 255.312,101.088 252.479,114.754 254.5,129.5C 252.554,124.604 251.887,119.271 252.5,113.5C 250.857,113.52 249.524,112.853 248.5,111.5C 247.702,113.078 247.202,114.744 247,116.5C 246.586,116.043 246.086,115.709 245.5,115.5C 245.167,117 244.833,118.5 244.5,120C 246.053,125.361 246.72,130.861 246.5,136.5C 248.5,136.833 250.5,137.167 252.5,137.5C 252.833,138.833 253.167,138.833 253.5,137.5C 254.806,136.533 255.473,135.199 255.5,133.5C 256.268,134.263 256.768,135.263 257,136.5C 258.129,134.859 259.629,133.859 261.5,133.5C 261.167,134.167 260.833,134.833 260.5,135.5C 259.766,136.878 259.099,138.378 258.5,140C 256.167,140.333 253.833,140.667 251.5,141C 249.771,142.927 247.605,144.093 245,144.5C 243.615,144.486 242.449,144.152 241.5,143.5C 244.226,143.736 246.559,142.903 248.5,141C 244.76,136.225 243.093,130.725 243.5,124.5C 243.5,121.167 243.5,117.833 243.5,114.5C 244.468,112.393 244.802,110.059 244.5,107.5C 244.5,106.833 244.167,106.5 243.5,106.5C 243.821,96.1207 245.154,96.1207 247.5,106.5C 252.27,104.955 254.437,101.622 254,96.5C 257.784,94.2922 260.118,90.9588 261,86.5C 262.609,85.8534 264.109,85.02 265.5,84C 264.62,82.6439 264.286,81.1439 264.5,79.5C 265.552,79.6495 266.552,79.4828 267.5,79C 266.137,76.8707 266.471,76.3707 268.5,77.5C 269.88,75.0233 270.88,75.0233 271.5,77.5 Z"/></g>
<g><path style="opacity:1" fill="#b48f3e" d="M 295.5,98.5 C 295.586,102.857 295.92,107.19 296.5,111.5C 297.552,111.351 298.552,111.517 299.5,112C 301.657,113.912 303.991,115.579 306.5,117C 304.751,117.785 303.084,118.618 301.5,119.5C 297.812,117.812 295.145,115.145 293.5,111.5C 292.632,107.192 292.466,102.859 293,98.5C 293.77,99.5981 294.603,99.5981 295.5,98.5 Z"/></g>
<g><path style="opacity:1" fill="#502c06" d="M 243.5,107.5 C 243.833,107.5 244.167,107.5 244.5,107.5C 244.802,110.059 244.468,112.393 243.5,114.5C 243.672,113.508 243.338,112.842 242.5,112.5C 242.629,110.784 242.962,109.117 243.5,107.5 Z"/></g>
<g><path style="opacity:1" fill="#937845" d="M 363.5,108.5 C 366.509,109.848 368.176,112.181 368.5,115.5C 369.552,115.649 370.552,115.483 371.5,115C 370.62,113.644 370.286,112.144 370.5,110.5C 373.291,115.777 375.291,121.444 376.5,127.5C 376.167,128.167 375.833,128.833 375.5,129.5C 371.264,122.703 367.264,115.703 363.5,108.5 Z"/></g>
<g><path style="opacity:1" fill="#bc9137" d="M 254.5,129.5 C 255.434,130.568 255.768,131.901 255.5,133.5C 255.473,135.199 254.806,136.533 253.5,137.5C 253.167,137.5 252.833,137.5 252.5,137.5C 250.5,137.167 248.5,136.833 246.5,136.5C 246.72,130.861 246.053,125.361 244.5,120C 244.833,118.5 245.167,117 245.5,115.5C 246.086,115.709 246.586,116.043 247,116.5C 247.202,114.744 247.702,113.078 248.5,111.5C 249.524,112.853 250.857,113.52 252.5,113.5C 251.887,119.271 252.554,124.604 254.5,129.5 Z"/></g>
<g><path style="opacity:1" fill="#b68e3d" d="M 244.5,84.5 C 243.979,88.1718 243.313,91.8384 242.5,95.5C 241.808,94.9747 241.308,94.3081 241,93.5C 238.424,98.8217 236.257,104.322 234.5,110C 235.744,110.456 236.577,109.956 237,108.5C 237.29,110.044 237.956,111.377 239,112.5C 239.667,111.167 240.333,111.167 241,112.5C 241.037,110.026 241.87,108.026 243.5,106.5C 243.5,106.833 243.5,107.167 243.5,107.5C 242.962,109.117 242.629,110.784 242.5,112.5C 242.5,113.167 242.5,113.833 242.5,114.5C 241.85,116.435 241.517,118.435 241.5,120.5C 241.221,125.595 241.555,130.595 242.5,135.5C 242.5,136.833 242.5,138.167 242.5,139.5C 239.996,138.361 237.33,137.694 234.5,137.5C 232.965,134.06 232.298,130.393 232.5,126.5C 232.908,120.834 233.241,115.167 233.5,109.5C 233.857,105.737 234.69,102.07 236,98.5C 238.106,93.2697 240.939,88.603 244.5,84.5 Z"/></g>
<g><path style="opacity:1" fill="#2a2604" d="M 242.5,114.5 C 242.833,114.5 243.167,114.5 243.5,114.5C 243.5,117.833 243.5,121.167 243.5,124.5C 242.833,123.167 242.167,121.833 241.5,120.5C 241.517,118.435 241.85,116.435 242.5,114.5 Z"/></g>
<g><path style="opacity:1" fill="#9c7e3f" d="M 295.5,98.5 C 296.028,103.561 298.028,108.061 301.5,112C 308.136,115.487 314.803,118.654 321.5,121.5C 317.818,121.335 314.152,121.501 310.5,122C 310.833,122.333 311.167,122.667 311.5,123C 319.167,126 326.833,129 334.5,132C 336.063,132.759 337.063,133.926 337.5,135.5C 324.683,131.753 312.683,126.42 301.5,119.5C 303.084,118.618 304.751,117.785 306.5,117C 303.991,115.579 301.657,113.912 299.5,112C 298.552,111.517 297.552,111.351 296.5,111.5C 295.92,107.19 295.586,102.857 295.5,98.5 Z"/></g>
<g><path style="opacity:1" fill="#967c40" d="M 281.5,140.5 C 282.64,137.975 283.307,135.308 283.5,132.5C 284.833,132.5 286.167,132.5 287.5,132.5C 287.5,131.5 287.5,130.5 287.5,129.5C 289.942,129.646 290.609,128.813 289.5,127C 290.308,126.692 290.975,126.192 291.5,125.5C 289.86,123.36 287.693,122.36 285,122.5C 280.157,125.136 274.99,127.136 269.5,128.5C 272.989,125.863 276.655,123.363 280.5,121C 286.833,119.024 291.5,120.857 294.5,126.5C 290.54,131.462 286.207,136.128 281.5,140.5 Z"/></g>
<g><path style="opacity:1" fill="#826a40" d="M 233.5,109.5 C 233.241,115.167 232.908,120.834 232.5,126.5C 232.298,130.393 232.965,134.06 234.5,137.5C 233.504,137.586 232.671,137.252 232,136.5C 229.83,127.235 230.33,118.235 233.5,109.5 Z"/></g>
<g><path style="opacity:1" fill="#b88d3a" d="M 321.5,121.5 C 323.553,121.402 325.22,122.069 326.5,123.5C 326.821,125.048 327.821,125.715 329.5,125.5C 329.5,126.5 329.5,127.5 329.5,128.5C 334.588,128.606 339.254,130.106 343.5,133C 345.439,133.908 346.439,135.408 346.5,137.5C 344.833,137.5 343.167,137.5 341.5,137.5C 339.847,137.34 338.514,136.674 337.5,135.5C 337.063,133.926 336.063,132.759 334.5,132C 326.833,129 319.167,126 311.5,123C 311.167,122.667 310.833,122.333 310.5,122C 314.152,121.501 317.818,121.335 321.5,121.5 Z"/></g>
<g><path style="opacity:1" fill="#b68e39" d="M 281.5,140.5 C 278.138,144.192 274.805,147.859 271.5,151.5C 271.5,149.833 271.5,148.167 271.5,146.5C 272.552,146.649 273.552,146.483 274.5,146C 273.793,143.48 272.96,140.98 272,138.5C 270.413,137.273 269.079,137.606 268,139.5C 267.535,138.069 266.701,136.903 265.5,136C 266.563,134.812 267.897,134.312 269.5,134.5C 269.688,132.897 269.188,131.563 268,130.5C 266.471,131.729 265.304,133.229 264.5,135C 263.207,135.49 261.873,135.657 260.5,135.5C 260.833,134.833 261.167,134.167 261.5,133.5C 264.159,131.836 266.825,130.17 269.5,128.5C 274.99,127.136 280.157,125.136 285,122.5C 287.693,122.36 289.86,123.36 291.5,125.5C 290.975,126.192 290.308,126.692 289.5,127C 290.609,128.813 289.942,129.646 287.5,129.5C 287.5,130.5 287.5,131.5 287.5,132.5C 286.167,132.5 284.833,132.5 283.5,132.5C 283.307,135.308 282.64,137.975 281.5,140.5 Z"/></g>
<g><path style="opacity:1" fill="#987d43" d="M 326.5,123.5 C 335.063,125.531 342.563,129.531 349,135.5C 350.861,137.888 352.194,140.554 353,143.5C 354.302,144.085 355.469,144.751 356.5,145.5C 352.167,145.833 350.167,143.833 350.5,139.5C 349.5,139.5 348.5,139.5 347.5,139.5C 348.213,142.594 349.213,145.594 350.5,148.5C 348.229,144.323 345.229,140.657 341.5,137.5C 343.167,137.5 344.833,137.5 346.5,137.5C 346.439,135.408 345.439,133.908 343.5,133C 339.254,130.106 334.588,128.606 329.5,128.5C 329.5,127.5 329.5,126.5 329.5,125.5C 327.821,125.715 326.821,125.048 326.5,123.5 Z"/></g>
<g><path style="opacity:1" fill="#53452d" d="M 242.5,135.5 C 243.461,137.265 243.795,139.265 243.5,141.5C 241.784,141.371 240.117,141.038 238.5,140.5C 237.41,139.143 236.076,138.143 234.5,137.5C 237.33,137.694 239.996,138.361 242.5,139.5C 242.5,138.167 242.5,136.833 242.5,135.5 Z"/></g>
<g><path style="opacity:1" fill="#91773f" d="M 223.5,134.5 C 219.318,134.32 215.318,134.987 211.5,136.5C 211.167,138.5 210.833,140.5 210.5,142.5C 207.724,139.49 208.058,136.656 211.5,134C 215.666,132.092 219.666,132.259 223.5,134.5 Z"/></g>
<g><path style="opacity:1" fill="#bb8f37" d="M 271.5,151.5 C 270.5,151.5 269.5,151.5 268.5,151.5C 268.5,153.5 268.5,155.5 268.5,157.5C 264.689,157.596 264.689,158.262 268.5,159.5C 269.98,161.544 269.48,162.878 267,163.5C 265.57,161.33 264.07,161.164 262.5,163C 264.061,163.941 265.395,165.108 266.5,166.5C 265.68,168.111 264.346,168.778 262.5,168.5C 261.391,168.557 260.391,168.89 259.5,169.5C 257.39,170.453 256.223,172.119 256,174.5C 255.503,177.146 255.336,179.813 255.5,182.5C 255.737,183.791 255.404,184.791 254.5,185.5C 253.031,189.625 251.698,193.958 250.5,198.5C 251.246,199.736 251.579,201.07 251.5,202.5C 247.936,202.849 244.602,202.183 241.5,200.5C 240.146,194.093 239.146,187.76 238.5,181.5C 239.103,173.501 239.27,165.501 239,157.5C 238.004,155.256 236.504,153.423 234.5,152C 231.274,150.628 227.941,149.461 224.5,148.5C 224.709,147.914 225.043,147.414 225.5,147C 228.168,146.433 230.834,145.933 233.5,145.5C 233.5,144.5 233.5,143.5 233.5,142.5C 236.167,142.833 238.833,143.167 241.5,143.5C 242.449,144.152 243.615,144.486 245,144.5C 247.605,144.093 249.771,142.927 251.5,141C 253.833,140.667 256.167,140.333 258.5,140C 259.099,138.378 259.766,136.878 260.5,135.5C 261.873,135.657 263.207,135.49 264.5,135C 265.304,133.229 266.471,131.729 268,130.5C 269.188,131.563 269.688,132.897 269.5,134.5C 267.897,134.312 266.563,134.812 265.5,136C 266.701,136.903 267.535,138.069 268,139.5C 269.079,137.606 270.413,137.273 272,138.5C 272.96,140.98 273.793,143.48 274.5,146C 273.552,146.483 272.552,146.649 271.5,146.5C 271.5,148.167 271.5,149.833 271.5,151.5 Z"/></g>
<g><path style="opacity:1" fill="#826d41" d="M 371.5,148.5 C 371.719,147.325 371.386,146.325 370.5,145.5C 369.378,146.63 368.044,147.297 366.5,147.5C 367.508,145.661 369.008,144.328 371,143.5C 371.914,141.336 373.081,139.336 374.5,137.5C 375.348,141.628 374.348,145.295 371.5,148.5 Z"/></g>
<g><path style="opacity:1" fill="#b58b3c" d="M 223.5,134.5 C 228.394,136.781 233.394,138.781 238.5,140.5C 239.306,141.728 240.306,142.728 241.5,143.5C 238.833,143.167 236.167,142.833 233.5,142.5C 233.5,143.5 233.5,144.5 233.5,145.5C 230.834,145.933 228.168,146.433 225.5,147C 225.043,147.414 224.709,147.914 224.5,148.5C 227.941,149.461 231.274,150.628 234.5,152C 236.504,153.423 238.004,155.256 239,157.5C 239.27,165.501 239.103,173.501 238.5,181.5C 237.671,174.679 237.171,167.679 237,160.5C 235.975,158.313 234.475,156.646 232.5,155.5C 232.586,154.504 232.252,153.671 231.5,153C 227.75,150.957 223.75,149.791 219.5,149.5C 216.91,148.872 214.577,147.705 212.5,146C 211.177,145.184 210.511,144.017 210.5,142.5C 210.833,140.5 211.167,138.5 211.5,136.5C 215.318,134.987 219.318,134.32 223.5,134.5 Z"/></g>
<g><path style="opacity:1" fill="#ad8b40" d="M 356.5,145.5 C 359.635,147.023 362.968,147.69 366.5,147.5C 368.044,147.297 369.378,146.63 370.5,145.5C 371.386,146.325 371.719,147.325 371.5,148.5C 369.423,152.123 366.256,153.79 362,153.5C 357.263,153.652 353.429,151.985 350.5,148.5C 349.213,145.594 348.213,142.594 347.5,139.5C 348.5,139.5 349.5,139.5 350.5,139.5C 350.167,143.833 352.167,145.833 356.5,145.5 Z"/></g>
<g><path style="opacity:1" fill="#8f7540" d="M 219.5,149.5 C 223.75,149.791 227.75,150.957 231.5,153C 232.252,153.671 232.586,154.504 232.5,155.5C 227.919,153.87 223.586,151.87 219.5,149.5 Z"/></g>
<g><path style="opacity:1" fill="#9b7d43" d="M 295.5,178.5 C 297.559,173.32 299.226,167.987 300.5,162.5C 298.403,163.353 296.403,163.353 294.5,162.5C 292.489,163.519 290.489,164.519 288.5,165.5C 292.131,159.442 296.964,158.109 303,161.5C 303.667,162.833 303.667,164.167 303,165.5C 300.978,170.223 298.478,174.557 295.5,178.5 Z"/></g>
<g><path style="opacity:1" fill="#b88e39" d="M 271.5,151.5 C 271.047,152.458 270.381,153.292 269.5,154C 275.889,157.856 282.222,161.689 288.5,165.5C 290.489,164.519 292.489,163.519 294.5,162.5C 296.403,163.353 298.403,163.353 300.5,162.5C 299.226,167.987 297.559,173.32 295.5,178.5C 294.5,178.5 293.5,178.5 292.5,178.5C 292.613,181.049 291.946,183.382 290.5,185.5C 289.726,186.711 288.893,186.711 288,185.5C 287.667,186.167 287.333,186.833 287,187.5C 285.161,185.799 283.327,184.132 281.5,182.5C 281.739,180.533 281.406,178.699 280.5,177C 274.234,174.428 268.234,171.594 262.5,168.5C 264.346,168.778 265.68,168.111 266.5,166.5C 265.395,165.108 264.061,163.941 262.5,163C 264.07,161.164 265.57,161.33 267,163.5C 269.48,162.878 269.98,161.544 268.5,159.5C 264.689,158.262 264.689,157.596 268.5,157.5C 268.5,155.5 268.5,153.5 268.5,151.5C 269.5,151.5 270.5,151.5 271.5,151.5 Z"/></g>
<g><path style="opacity:1" fill="#392b10" d="M 258.5,172.5 C 260.483,172.157 261.817,172.824 262.5,174.5C 261.85,174.196 261.183,173.863 260.5,173.5C 259.117,175.32 258.117,177.32 257.5,179.5C 257.167,179.5 256.833,179.5 256.5,179.5C 256.394,176.921 257.061,174.588 258.5,172.5 Z"/></g>
<g><path style="opacity:1" fill="#a18244" d="M 259.5,169.5 C 259.443,170.609 259.11,171.609 258.5,172.5C 257.061,174.588 256.394,176.921 256.5,179.5C 256.833,180.833 257.167,180.833 257.5,179.5C 258.117,177.32 259.117,175.32 260.5,173.5C 261.183,173.863 261.85,174.196 262.5,174.5C 267.839,178.174 273.172,181.841 278.5,185.5C 275.148,184.992 272.148,183.658 269.5,181.5C 268.914,181.709 268.414,182.043 268,182.5C 266.289,179.745 264.122,177.411 261.5,175.5C 258.495,181.229 260.495,185.395 267.5,188C 266.944,188.383 266.611,188.883 266.5,189.5C 263.003,186.917 259.336,184.584 255.5,182.5C 255.336,179.813 255.503,177.146 256,174.5C 256.223,172.119 257.39,170.453 259.5,169.5 Z"/></g>
<g><path style="opacity:1" fill="#ba8f39" d="M 278.5,185.5 C 279.391,186.11 280.391,186.443 281.5,186.5C 281.5,186.833 281.5,187.167 281.5,187.5C 282.122,188.627 282.955,189.627 284,190.5C 285.333,189.167 286.667,189.167 288,190.5C 288.442,192.684 287.942,194.684 286.5,196.5C 280.939,194.423 275.272,192.757 269.5,191.5C 267.973,191.573 266.973,190.906 266.5,189.5C 266.611,188.883 266.944,188.383 267.5,188C 260.495,185.395 258.495,181.229 261.5,175.5C 264.122,177.411 266.289,179.745 268,182.5C 268.414,182.043 268.914,181.709 269.5,181.5C 272.148,183.658 275.148,184.992 278.5,185.5 Z"/></g>
<g><path style="opacity:1" fill="#ab863e" d="M 295.5,178.5 C 294.197,182.653 292.197,186.486 289.5,190C 301.587,195.097 314.254,196.931 327.5,195.5C 328.609,196.29 329.942,196.79 331.5,197C 330.619,197.708 329.953,198.542 329.5,199.5C 310.706,204.061 292.373,202.561 274.5,195C 272.767,193.811 271.1,192.644 269.5,191.5C 275.272,192.757 280.939,194.423 286.5,196.5C 287.942,194.684 288.442,192.684 288,190.5C 286.667,189.167 285.333,189.167 284,190.5C 282.955,189.627 282.122,188.627 281.5,187.5C 282.833,187.167 282.833,186.833 281.5,186.5C 281.5,185.167 281.5,183.833 281.5,182.5C 283.327,184.132 285.161,185.799 287,187.5C 287.333,186.833 287.667,186.167 288,185.5C 288.893,186.711 289.726,186.711 290.5,185.5C 291.946,183.382 292.613,181.049 292.5,178.5C 293.5,178.5 294.5,178.5 295.5,178.5 Z"/></g>
<g><path style="opacity:1" fill="#907449" d="M 329.5,199.5 C 329.953,198.542 330.619,197.708 331.5,197C 329.942,196.79 328.609,196.29 327.5,195.5C 332.829,194.892 337.996,193.559 343,191.5C 343.5,191.833 344,192.167 344.5,192.5C 340.009,195.782 335.009,198.115 329.5,199.5 Z"/></g>
<g><path style="opacity:1" fill="#a38448" d="M 238.5,181.5 C 239.146,187.76 240.146,194.093 241.5,200.5C 244.602,202.183 247.936,202.849 251.5,202.5C 251.579,201.07 251.246,199.736 250.5,198.5C 251.698,193.958 253.031,189.625 254.5,185.5C 254.631,191.221 254.131,196.888 253,202.5C 248.053,204.945 243.386,204.278 239,200.5C 238.5,194.175 238.334,187.842 238.5,181.5 Z"/></g>
<g><path style="opacity:1" fill="#8e7646" d="M 266.5,232.5 C 264.833,232.5 263.167,232.5 261.5,232.5C 256.531,231.217 251.531,231.217 246.5,232.5C 246.611,231.883 246.944,231.383 247.5,231C 253.167,230.333 258.833,230.333 264.5,231C 265.416,231.278 266.082,231.778 266.5,232.5 Z"/></g>
<g><path style="opacity:1" fill="#988148" d="M 149.5,234.5 C 142.167,231.833 134.833,231.833 127.5,234.5C 128.29,233.206 129.29,232.039 130.5,231C 135.833,230.333 141.167,230.333 146.5,231C 148.426,231.422 149.426,232.589 149.5,234.5 Z"/></g>
<g><path style="opacity:1" fill="#9f8548" d="M 433.5,239.5 C 432.883,239.611 432.383,239.944 432,240.5C 431.023,237.381 429.189,234.881 426.5,233C 419.929,231.971 413.596,232.471 407.5,234.5C 407.937,232.926 408.937,231.759 410.5,231C 415.833,230.333 421.167,230.333 426.5,231C 430.143,232.805 432.476,235.638 433.5,239.5 Z"/></g>
<g><path style="opacity:1" fill="#a98b4d" d="M 497.5,239.5 C 499.948,238.527 502.615,238.194 505.5,238.5C 505.5,236.5 505.5,234.5 505.5,232.5C 496.167,232.5 486.833,232.5 477.5,232.5C 477.5,234.5 477.5,236.5 477.5,238.5C 480.385,238.194 483.052,238.527 485.5,239.5C 482.167,239.5 478.833,239.5 475.5,239.5C 475.5,236.5 475.5,233.5 475.5,230.5C 486.167,230.5 496.833,230.5 507.5,230.5C 507.223,233.448 507.556,236.281 508.5,239C 504.848,239.499 501.182,239.665 497.5,239.5 Z"/></g>
<g><path style="opacity:1" fill="#bb9139" d="M 149.5,234.5 C 151.912,234.694 152.912,236.027 152.5,238.5C 152.662,243.182 151.495,247.515 149,251.5C 148.333,252.833 147.667,252.833 147,251.5C 146.505,249.527 146.338,247.527 146.5,245.5C 146.672,243.508 146.005,241.842 144.5,240.5C 144.833,239.833 145.167,239.167 145.5,238.5C 141.634,236.773 137.801,236.106 134,236.5C 131.505,248.004 130.838,259.67 132,271.5C 132.112,274.447 133.612,275.78 136.5,275.5C 136.5,276.167 136.833,276.5 137.5,276.5C 139.631,277.314 141.964,277.814 144.5,278C 143.833,278.667 143.167,279.333 142.5,280C 144.175,280.985 145.842,281.819 147.5,282.5C 147.33,283.822 147.663,284.989 148.5,286C 150.519,286.45 152.352,287.283 154,288.5C 154.684,289.784 154.517,290.951 153.5,292C 150.442,292.458 147.442,292.124 144.5,291C 143.491,288.828 141.824,287.662 139.5,287.5C 139.5,287.167 139.5,286.833 139.5,286.5C 139.5,285.5 139.5,284.5 139.5,283.5C 135.616,283.576 131.95,282.91 128.5,281.5C 124.533,274.28 122.867,266.447 123.5,258C 123.667,252.833 123.833,247.667 124,242.5C 125.445,239.91 126.612,237.243 127.5,234.5C 134.833,231.833 142.167,231.833 149.5,234.5 Z"/></g>
<g><path style="opacity:1" fill="#bc9037" d="M 231.5,277.5 C 229.176,277.662 227.509,278.828 226.5,281C 221.254,282.506 215.921,282.839 210.5,282C 209.167,281.333 209.167,280.667 210.5,280C 208.134,279.56 205.801,279.06 203.5,278.5C 203.5,278.167 203.5,277.833 203.5,277.5C 203.5,276.5 203.5,275.5 203.5,274.5C 205.031,276.68 207.198,277.68 210,277.5C 211.681,277.392 212.848,276.725 213.5,275.5C 214.167,275.5 214.833,275.5 215.5,275.5C 218.771,278.277 221.604,277.61 224,273.5C 224.5,259.837 224.667,246.171 224.5,232.5C 227.167,232.5 229.833,232.5 232.5,232.5C 232.749,247.525 232.416,262.525 231.5,277.5 Z"/></g>
<g><path style="opacity:1" fill="#b88e38" d="M 101.5,251.5 C 105.634,252.485 109.968,252.818 114.5,252.5C 114.5,254.833 114.5,257.167 114.5,259.5C 109.968,259.182 105.634,259.515 101.5,260.5C 101.5,265.167 101.5,269.833 101.5,274.5C 106.833,274.5 112.167,274.5 117.5,274.5C 117.5,277.167 117.5,279.833 117.5,282.5C 109.167,282.5 100.833,282.5 92.5,282.5C 92.5,265.833 92.5,249.167 92.5,232.5C 100.5,232.5 108.5,232.5 116.5,232.5C 116.5,234.5 116.5,236.5 116.5,238.5C 111.167,238.5 105.833,238.5 100.5,238.5C 100.182,243.032 100.515,247.366 101.5,251.5 Z"/></g>
<g><path style="opacity:1" fill="#b88e3b" d="M 261.5,232.5 C 263.167,232.5 264.833,232.5 266.5,232.5C 269.48,233.829 270.813,236.163 270.5,239.5C 270.5,241.167 270.5,242.833 270.5,244.5C 268.076,244.808 265.743,244.474 263.5,243.5C 263.709,242.914 264.043,242.414 264.5,242C 263.272,239.86 261.605,238.193 259.5,237C 261.107,235.951 261.773,234.451 261.5,232.5 Z"/></g>
<g><path style="opacity:1" fill="#b19251" d="M 146.5,245.5 C 145.67,253.99 145.17,262.657 145,271.5C 144.722,272.416 144.222,273.082 143.5,273.5C 144.591,263.534 144.758,253.534 144,243.5C 139.78,236.676 136.114,237.009 133,244.5C 132.333,253.167 132.333,261.833 133,270.5C 133.669,272.59 134.836,274.257 136.5,275.5C 133.612,275.78 132.112,274.447 132,271.5C 130.838,259.67 131.505,248.004 134,236.5C 137.801,236.106 141.634,236.773 145.5,238.5C 145.167,239.167 144.833,239.833 144.5,240.5C 146.005,241.842 146.672,243.508 146.5,245.5 Z"/></g>
<g><path style="opacity:1" fill="#b38f3e" d="M 470.5,235.5 C 474.598,243.14 474.431,250.806 470,258.5C 468.926,259.618 467.76,260.618 466.5,261.5C 469.274,267.601 471.274,273.934 472.5,280.5C 470.012,282.388 467.012,283.055 463.5,282.5C 463.567,281.041 463.234,279.708 462.5,278.5C 463.931,278.881 464.764,279.881 465,281.5C 466.351,279.981 467.851,278.648 469.5,277.5C 469.019,273.257 467.852,269.257 466,265.5C 464.636,266.258 463.469,265.758 462.5,264C 463.126,263.25 463.626,262.416 464,261.5C 464.333,261.833 464.667,262.167 465,262.5C 465.494,260.866 465.66,259.199 465.5,257.5C 467.451,257.773 468.951,257.107 470,255.5C 470.499,249.484 470.332,243.484 469.5,237.5C 463.341,238.181 461.675,241.347 464.5,247C 464.333,248.833 464.167,250.667 464,252.5C 463.617,253.056 463.117,253.389 462.5,253.5C 462.5,252.5 462.5,251.5 462.5,250.5C 463.193,246.247 462.193,242.581 459.5,239.5C 459.5,239.167 459.5,238.833 459.5,238.5C 461.783,238.392 463.783,237.559 465.5,236C 464.328,235.581 463.328,234.915 462.5,234C 458.715,234.785 455.215,234.618 452,233.5C 449.719,235.529 447.219,235.862 444.5,234.5C 443.501,250.152 443.167,265.819 443.5,281.5C 445.735,281.205 447.735,281.539 449.5,282.5C 447.167,282.5 444.833,282.5 442.5,282.5C 442.5,265.5 442.5,248.5 442.5,231.5C 449.175,231.334 455.842,231.5 462.5,232C 464.818,233.993 467.484,235.159 470.5,235.5 Z M 459.5,239.5 C 462.193,242.581 463.193,246.247 462.5,250.5C 460.263,254.093 456.93,255.426 452.5,254.5C 452.5,249.5 452.5,244.5 452.5,239.5C 454.833,239.5 457.167,239.5 459.5,239.5 Z"/></g>
<g><path style="opacity:1" fill="#bb9138" d="M 497.5,239.5 C 495.517,253.461 494.85,267.794 495.5,282.5C 493.585,282.216 491.919,282.549 490.5,283.5C 490.167,283.5 489.833,283.5 489.5,283.5C 488.197,268.704 486.864,254.037 485.5,239.5C 483.052,238.527 480.385,238.194 477.5,238.5C 477.5,236.5 477.5,234.5 477.5,232.5C 486.833,232.5 496.167,232.5 505.5,232.5C 505.5,234.5 505.5,236.5 505.5,238.5C 502.615,238.194 499.948,238.527 497.5,239.5 Z"/></g>
<g><path style="opacity:1" fill="#bc9134" d="M 213.5,275.5 C 212.848,276.725 211.681,277.392 210,277.5C 207.198,277.68 205.031,276.68 203.5,274.5C 202.535,260.549 202.201,246.549 202.5,232.5C 205.167,232.5 207.833,232.5 210.5,232.5C 210.167,246.516 210.501,260.516 211.5,274.5C 212.183,274.863 212.85,275.196 213.5,275.5 Z"/></g>
<g><path style="opacity:1" fill="#b78e39" d="M 314.5,239.5 C 311.5,239.5 308.5,239.5 305.5,239.5C 305.5,243.5 305.5,247.5 305.5,251.5C 309.029,253.423 313.029,254.089 317.5,253.5C 317.034,255.201 317.034,256.701 317.5,258C 313.044,257.898 309.044,258.732 305.5,260.5C 305.5,265.167 305.5,269.833 305.5,274.5C 310.833,274.5 316.167,274.5 321.5,274.5C 321.5,277.167 321.5,279.833 321.5,282.5C 313.804,282.831 306.138,282.497 298.5,281.5C 298.192,280.692 297.692,280.025 297,279.5C 296.5,263.503 296.333,247.503 296.5,231.5C 304.174,231.334 311.841,231.5 319.5,232C 320.423,234.041 320.756,236.208 320.5,238.5C 318.265,238.205 316.265,238.539 314.5,239.5 Z"/></g>
<g><path style="opacity:1" fill="#9c804a" d="M 215.5,275.5 C 214.833,275.5 214.167,275.5 213.5,275.5C 212.85,275.196 212.183,274.863 211.5,274.5C 210.501,260.516 210.167,246.516 210.5,232.5C 207.833,232.5 205.167,232.5 202.5,232.5C 202.201,246.549 202.535,260.549 203.5,274.5C 203.5,275.5 203.5,276.5 203.5,277.5C 202.073,275.852 201.24,273.852 201,271.5C 200.5,257.837 200.333,244.171 200.5,230.5C 204.167,230.5 207.833,230.5 211.5,230.5C 211.333,243.837 211.5,257.171 212,270.5C 212.257,272.907 213.424,274.573 215.5,275.5 Z"/></g>
<g><path style="opacity:1" fill="#bb9038" d="M 459.5,238.5 C 456.609,237.597 453.609,237.264 450.5,237.5C 450.502,243.523 450.835,249.523 451.5,255.5C 455.487,255.99 459.154,255.324 462.5,253.5C 463.117,253.389 463.617,253.056 464,252.5C 464.167,250.667 464.333,248.833 464.5,247C 461.675,241.347 463.341,238.181 469.5,237.5C 470.332,243.484 470.499,249.484 470,255.5C 468.951,257.107 467.451,257.773 465.5,257.5C 465.66,259.199 465.494,260.866 465,262.5C 464.667,262.167 464.333,261.833 464,261.5C 463.626,262.416 463.126,263.25 462.5,264C 463.469,265.758 464.636,266.258 466,265.5C 467.852,269.257 469.019,273.257 469.5,277.5C 467.851,278.648 466.351,279.981 465,281.5C 464.764,279.881 463.931,278.881 462.5,278.5C 462.573,276.973 461.906,275.973 460.5,275.5C 460.405,273.214 459.738,271.214 458.5,269.5C 458.55,265.205 456.55,262.872 452.5,262.5C 452.5,266.167 452.5,269.833 452.5,273.5C 452.11,276.797 451.11,279.797 449.5,282.5C 447.735,281.539 445.735,281.205 443.5,281.5C 443.167,265.819 443.501,250.152 444.5,234.5C 447.219,235.862 449.719,235.529 452,233.5C 455.215,234.618 458.715,234.785 462.5,234C 463.328,234.915 464.328,235.581 465.5,236C 463.783,237.559 461.783,238.392 459.5,238.5 Z M 459.5,239.5 C 462.193,242.581 463.193,246.247 462.5,250.5C 460.263,254.093 456.93,255.426 452.5,254.5C 452.5,249.5 452.5,244.5 452.5,239.5C 454.833,239.5 457.167,239.5 459.5,239.5 Z"/></g>
<g><path style="opacity:1" fill="#9e8049" d="M 459.5,238.5 C 459.5,238.833 459.5,239.167 459.5,239.5C 457.167,239.5 454.833,239.5 452.5,239.5C 452.5,244.5 452.5,249.5 452.5,254.5C 456.93,255.426 460.263,254.093 462.5,250.5C 462.5,251.5 462.5,252.5 462.5,253.5C 459.154,255.324 455.487,255.99 451.5,255.5C 450.835,249.523 450.502,243.523 450.5,237.5C 453.609,237.264 456.609,237.597 459.5,238.5 Z"/></g>
<g><path style="opacity:1" fill="#8f7642" d="M 314.5,239.5 C 316.265,238.539 318.265,238.205 320.5,238.5C 320.756,236.208 320.423,234.041 319.5,232C 311.841,231.5 304.174,231.334 296.5,231.5C 296.333,247.503 296.5,263.503 297,279.5C 297.692,280.025 298.192,280.692 298.5,281.5C 306.138,282.497 313.804,282.831 321.5,282.5C 312.682,283.493 303.682,283.827 294.5,283.5C 294.5,265.833 294.5,248.167 294.5,230.5C 303.5,230.5 312.5,230.5 321.5,230.5C 321.5,233.5 321.5,236.5 321.5,239.5C 319.167,239.5 316.833,239.5 314.5,239.5 Z"/></g>
<g><path style="opacity:1" fill="#9f8349" d="M 350.5,259.5 C 349.275,258.848 348.608,257.681 348.5,256C 349.647,252.571 350.48,249.071 351,245.5C 351.333,245.833 351.667,246.167 352,246.5C 354.43,242.255 356.596,237.921 358.5,233.5C 355.572,232.516 352.572,232.183 349.5,232.5C 352.684,230.586 356.351,229.92 360.5,230.5C 357.817,239.538 354.151,248.205 349.5,256.5C 350.127,257.417 350.461,258.417 350.5,259.5 Z"/></g>
<g><path style="opacity:1" fill="#ac8e4e" d="M 367.5,230.5 C 375.019,230.175 382.352,230.508 389.5,231.5C 382.687,232.491 375.687,232.825 368.5,232.5C 368.5,249.167 368.5,265.833 368.5,282.5C 367.503,265.341 367.17,248.008 367.5,230.5 Z"/></g>
<g><path style="opacity:1" fill="#836c3e" d="M 231.5,277.5 C 232.416,262.525 232.749,247.525 232.5,232.5C 229.833,232.5 227.167,232.5 224.5,232.5C 224.667,246.171 224.5,259.837 224,273.5C 221.604,277.61 218.771,278.277 215.5,275.5C 217.827,275.753 219.827,275.086 221.5,273.5C 222.333,259.512 222.833,245.512 223,231.5C 226.73,230.54 230.563,230.207 234.5,230.5C 234.667,244.171 234.5,257.837 234,271.5C 233.434,273.723 232.6,275.723 231.5,277.5 Z"/></g>
<g><path style="opacity:1" fill="#876f39" d="M 391.5,232.5 C 395.051,233.921 396.884,236.588 397,240.5C 397.667,245.5 397.667,250.5 397,255.5C 396.626,257.491 395.793,259.158 394.5,260.5C 396.348,254.313 396.848,247.98 396,241.5C 394.273,238.609 392.773,235.609 391.5,232.5 Z"/></g>
<g><path style="opacity:1" fill="#b9903d" d="M 152.5,238.5 C 153.338,238.842 153.672,239.508 153.5,240.5C 154.36,250.139 154.693,259.806 154.5,269.5C 154.377,274.743 152.377,279.076 148.5,282.5C 148.167,282.5 147.833,282.5 147.5,282.5C 145.842,281.819 144.175,280.985 142.5,280C 143.167,279.333 143.833,278.667 144.5,278C 141.964,277.814 139.631,277.314 137.5,276.5C 140.313,276.975 142.313,275.975 143.5,273.5C 144.222,273.082 144.722,272.416 145,271.5C 145.17,262.657 145.67,253.99 146.5,245.5C 146.338,247.527 146.505,249.527 147,251.5C 147.667,252.833 148.333,252.833 149,251.5C 151.495,247.515 152.662,243.182 152.5,238.5 Z"/></g>
<g><path style="opacity:1" fill="#bc9037" d="M 433.5,239.5 C 435.484,249.719 434.818,259.719 431.5,269.5C 430.167,271.5 428.833,273.5 427.5,275.5C 427.919,276.672 428.585,277.672 429.5,278.5C 428.675,279.386 427.675,279.719 426.5,279.5C 426.5,280.5 426.5,281.5 426.5,282.5C 423.428,282.817 420.428,282.484 417.5,281.5C 419.769,280.185 422.102,279.018 424.5,278C 423.62,276.644 423.286,275.144 423.5,273.5C 424.5,273.5 425.5,273.5 426.5,273.5C 427.069,262.706 426.402,252.04 424.5,241.5C 425.888,238.835 424.888,237.835 421.5,238.5C 419.533,238.261 417.699,238.594 416,239.5C 414.243,243.102 413.076,246.768 412.5,250.5C 411.883,250.611 411.383,250.944 411,251.5C 410.667,255.833 410.333,260.167 410,264.5C 409.798,262.744 409.298,261.078 408.5,259.5C 407.265,263.943 407.265,268.777 408.5,274C 407.527,274.349 406.694,275.182 406,276.5C 403.527,269.218 404.027,262.218 407.5,255.5C 403.764,248.508 403.764,241.508 407.5,234.5C 413.596,232.471 419.929,231.971 426.5,233C 429.189,234.881 431.023,237.381 432,240.5C 432.383,239.944 432.883,239.611 433.5,239.5 Z M 421.5,238.5 C 422.512,241.257 423.512,243.924 424.5,246.5C 424.705,254.867 424.371,263.2 423.5,271.5C 421.459,275.719 418.626,276.386 415,273.5C 413.121,265.959 412.288,258.292 412.5,250.5C 413.076,246.768 414.243,243.102 416,239.5C 417.699,238.594 419.533,238.261 421.5,238.5 Z"/></g>
<g><path style="opacity:1" fill="#967c47" d="M 101.5,251.5 C 100.515,247.366 100.182,243.032 100.5,238.5C 105.833,238.5 111.167,238.5 116.5,238.5C 116.5,236.5 116.5,234.5 116.5,232.5C 108.5,232.5 100.5,232.5 92.5,232.5C 92.5,249.167 92.5,265.833 92.5,282.5C 100.833,282.5 109.167,282.5 117.5,282.5C 117.217,283.289 116.717,283.956 116,284.5C 107.731,283.609 99.3972,283.276 91,283.5C 90.5001,265.836 90.3334,248.17 90.5,230.5C 99.5,230.5 108.5,230.5 117.5,230.5C 117.5,233.5 117.5,236.5 117.5,239.5C 112.167,239.5 106.833,239.5 101.5,239.5C 101.5,243.5 101.5,247.5 101.5,251.5 Z"/></g>
<g><path style="opacity:1" fill="#bc9038" d="M 186.5,282.5 C 186.167,282.5 185.833,282.5 185.5,282.5C 180.156,282.666 174.823,282.499 169.5,282C 168.263,281.768 167.263,281.268 166.5,280.5C 166.5,279.5 166.5,278.5 166.5,277.5C 168.322,277.169 169.989,276.502 171.5,275.5C 176.205,276.901 180.871,276.734 185.5,275C 184.51,260.912 184.176,246.745 184.5,232.5C 186.833,232.5 189.167,232.5 191.5,232.5C 191.667,246.171 191.5,259.837 191,273.5C 189.684,276.633 188.184,279.633 186.5,282.5 Z"/></g>
<g><path style="opacity:1" fill="#a8894a" d="M 186.5,282.5 C 188.184,279.633 189.684,276.633 191,273.5C 191.5,259.837 191.667,246.171 191.5,232.5C 189.167,232.5 186.833,232.5 184.5,232.5C 184.176,246.745 184.51,260.912 185.5,275C 180.871,276.734 176.205,276.901 171.5,275.5C 169.385,263.418 169.051,251.418 170.5,239.5C 170.174,248.017 170.507,256.35 171.5,264.5C 171.107,267.93 171.773,271.096 173.5,274C 177.351,276.497 180.184,275.663 182,271.5C 182.5,257.837 182.667,244.171 182.5,230.5C 186.167,230.5 189.833,230.5 193.5,230.5C 193.92,246.216 193.42,261.883 192,277.5C 190.296,279.373 188.463,281.04 186.5,282.5 Z"/></g>
<g><path style="opacity:1" fill="#82663a" d="M 127.5,234.5 C 126.612,237.243 125.445,239.91 124,242.5C 123.833,247.667 123.667,252.833 123.5,258C 122.867,266.447 124.533,274.28 128.5,281.5C 127.504,281.586 126.671,281.252 126,280.5C 122.154,273.33 120.654,265.663 121.5,257.5C 120.955,249.884 122.122,242.551 125,235.5C 125.671,234.748 126.504,234.414 127.5,234.5 Z"/></g>
<g><path style="opacity:1" fill="#524119" d="M 153.5,240.5 C 154.29,241.609 154.79,242.942 155,244.5C 155.823,253.01 155.657,261.344 154.5,269.5C 154.693,259.806 154.36,250.139 153.5,240.5 Z"/></g>
<g><path style="opacity:1" fill="#a2813f" d="M 261.5,232.5 C 261.773,234.451 261.107,235.951 259.5,237C 261.605,238.193 263.272,239.86 264.5,242C 264.043,242.414 263.709,242.914 263.5,243.5C 265.743,244.474 268.076,244.808 270.5,244.5C 270.5,242.833 270.5,241.167 270.5,239.5C 271.468,241.607 271.802,243.941 271.5,246.5C 268.167,246.5 264.833,246.5 261.5,246.5C 261.607,241.071 258.94,238.738 253.5,239.5C 253.5,238.5 253.5,237.5 253.5,236.5C 254.873,236.657 256.207,236.49 257.5,236C 256.167,235.333 256.167,234.667 257.5,234C 251.648,231.976 246.815,233.476 243,238.5C 240.778,244.062 241.278,249.229 244.5,254C 245.854,255.294 247.188,255.46 248.5,254.5C 249.906,258.908 252.906,260.908 257.5,260.5C 257.238,259.022 257.571,257.689 258.5,256.5C 262.117,262.3 263.284,268.634 262,275.5C 261.751,276.624 261.251,277.624 260.5,278.5C 258.396,277.481 256.396,276.481 254.5,275.5C 261.329,275.302 263.329,271.969 260.5,265.5C 255.702,262.725 250.702,260.225 245.5,258C 237.614,249.031 237.947,240.531 246.5,232.5C 251.531,231.217 256.531,231.217 261.5,232.5 Z"/></g>
<g><path style="opacity:1" fill="#95783f" d="M 305.5,251.5 C 309.846,251.334 314.179,251.501 318.5,252C 319.444,254.719 319.777,257.552 319.5,260.5C 314.833,260.5 310.167,260.5 305.5,260.5C 309.044,258.732 313.044,257.898 317.5,258C 317.034,256.701 317.034,255.201 317.5,253.5C 313.029,254.089 309.029,253.423 305.5,251.5 Z"/></g>
<g><path style="opacity:1" fill="#66542a" d="M 101.5,251.5 C 106.167,251.5 110.833,251.5 115.5,251.5C 115.5,254.5 115.5,257.5 115.5,260.5C 110.982,261.037 106.315,261.037 101.5,260.5C 105.634,259.515 109.968,259.182 114.5,259.5C 114.5,257.167 114.5,254.833 114.5,252.5C 109.968,252.818 105.634,252.485 101.5,251.5 Z"/></g>
<g><path style="opacity:1" fill="#826a3a" d="M 171.5,264.5 C 170.507,256.35 170.174,248.017 170.5,239.5C 170.5,236.833 170.5,234.167 170.5,231.5C 167.833,231.5 165.167,231.5 162.5,231.5C 162.333,245.171 162.5,258.837 163,272.5C 163.322,275.666 164.489,278.333 166.5,280.5C 167.263,281.268 168.263,281.768 169.5,282C 174.823,282.499 180.156,282.666 185.5,282.5C 185.082,283.222 184.416,283.722 183.5,284C 177.276,285.061 171.276,284.394 165.5,282C 164.213,280.59 163.046,279.09 162,277.5C 160.547,261.904 160.047,246.238 160.5,230.5C 164.167,230.5 167.833,230.5 171.5,230.5C 171.5,241.833 171.5,253.167 171.5,264.5 Z"/></g>
<g><path style="opacity:1" fill="#ba9038" d="M 339.5,236.5 C 340.848,239.492 342.348,242.492 344,245.5C 345.334,240.846 347.167,236.513 349.5,232.5C 352.572,232.183 355.572,232.516 358.5,233.5C 356.596,237.921 354.43,242.255 352,246.5C 351.667,246.167 351.333,245.833 351,245.5C 350.48,249.071 349.647,252.571 348.5,256C 348.608,257.681 349.275,258.848 350.5,259.5C 351.209,264.666 352.376,269.666 354,274.5C 356.316,275.522 356.816,277.022 355.5,279C 356.973,279.71 357.64,280.876 357.5,282.5C 355.208,282.756 353.041,282.423 351,281.5C 350.167,279.833 349.333,278.167 348.5,276.5C 349.167,275.833 349.833,275.167 350.5,274.5C 346.332,272.53 343.832,269.197 343,264.5C 341.667,265.167 340.667,266.167 340,267.5C 339.81,261.427 338.644,255.261 336.5,249C 337.736,247.144 337.736,245.311 336.5,243.5C 331.148,241.798 328.481,238.132 328.5,232.5C 331.187,232.336 333.854,232.503 336.5,233C 337.163,234.518 338.163,235.685 339.5,236.5 Z"/></g>
<g><path style="opacity:1" fill="#b98f3a" d="M 389.5,231.5 C 390.492,231.328 391.158,231.662 391.5,232.5C 392.773,235.609 394.273,238.609 396,241.5C 396.848,247.98 396.348,254.313 394.5,260.5C 393.106,262.708 391.106,264.208 388.5,265C 384.579,265.203 380.745,265.703 377,266.5C 376.728,272.065 376.895,277.398 377.5,282.5C 374.5,282.5 371.5,282.5 368.5,282.5C 368.5,265.833 368.5,249.167 368.5,232.5C 375.687,232.825 382.687,232.491 389.5,231.5 Z M 377.5,239.5 C 379.857,239.337 382.19,239.503 384.5,240C 386.496,244.271 386.996,248.771 386,253.5C 383.145,256.75 380.145,257.083 377,254.5C 376.274,249.448 376.441,244.448 377.5,239.5 Z"/></g>
<g><path style="opacity:1" fill="#856b38" d="M 497.5,239.5 C 497.5,254.167 497.5,268.833 497.5,283.5C 495.167,283.5 492.833,283.5 490.5,283.5C 491.919,282.549 493.585,282.216 495.5,282.5C 494.85,267.794 495.517,253.461 497.5,239.5 Z"/></g>
<g><path style="opacity:1" fill="#bb9138" d="M 170.5,239.5 C 169.051,251.418 169.385,263.418 171.5,275.5C 169.989,276.502 168.322,277.169 166.5,277.5C 166.5,278.5 166.5,279.5 166.5,280.5C 164.489,278.333 163.322,275.666 163,272.5C 162.5,258.837 162.333,245.171 162.5,231.5C 165.167,231.5 167.833,231.5 170.5,231.5C 170.5,234.167 170.5,236.833 170.5,239.5 Z"/></g>
<g><path style="opacity:1" fill="#947d47" d="M 470.5,235.5 C 467.484,235.159 464.818,233.993 462.5,232C 455.842,231.5 449.175,231.334 442.5,231.5C 442.5,248.5 442.5,265.5 442.5,282.5C 444.833,282.5 447.167,282.5 449.5,282.5C 451.11,279.797 452.11,276.797 452.5,273.5C 452.5,276.833 452.5,280.167 452.5,283.5C 448.833,283.5 445.167,283.5 441.5,283.5C 441.5,265.833 441.5,248.167 441.5,230.5C 449.174,230.334 456.841,230.5 464.5,231C 467.106,231.792 469.106,233.292 470.5,235.5 Z"/></g>
<g><path style="opacity:1" fill="#b88f39" d="M 253.5,239.5 C 251.568,242.177 251.068,245.177 252,248.5C 256.718,250.773 261.552,252.94 266.5,255C 272.558,260.763 274.391,267.263 272,274.5C 271.009,277.64 269.176,279.974 266.5,281.5C 260.124,282.996 253.791,282.83 247.5,281C 245.122,279.085 243.622,276.585 243,273.5C 242.667,273.833 242.333,274.167 242,274.5C 241.722,273.584 241.222,272.918 240.5,272.5C 240.5,270.833 240.5,269.167 240.5,267.5C 243.059,267.802 245.393,267.468 247.5,266.5C 248.5,266.5 249.5,266.5 250.5,266.5C 249.981,270.453 251.314,273.453 254.5,275.5C 256.396,276.481 258.396,277.481 260.5,278.5C 261.251,277.624 261.751,276.624 262,275.5C 263.284,268.634 262.117,262.3 258.5,256.5C 257.571,257.689 257.238,259.022 257.5,260.5C 252.906,260.908 249.906,258.908 248.5,254.5C 247.188,255.46 245.854,255.294 244.5,254C 241.278,249.229 240.778,244.062 243,238.5C 246.815,233.476 251.648,231.976 257.5,234C 256.167,234.667 256.167,235.333 257.5,236C 256.207,236.49 254.873,236.657 253.5,236.5C 253.5,237.5 253.5,238.5 253.5,239.5 Z"/></g>
<g><path style="opacity:1" fill="#876644" d="M 485.5,239.5 C 486.864,254.037 488.197,268.704 489.5,283.5C 488.167,283.5 486.833,283.5 485.5,283.5C 485.5,268.833 485.5,254.167 485.5,239.5 Z"/></g>
<g><path style="opacity:1" fill="#3c2719" d="M 247.5,266.5 C 245.393,267.468 243.059,267.802 240.5,267.5C 240.5,269.167 240.5,270.833 240.5,272.5C 239.539,270.735 239.205,268.735 239.5,266.5C 242.167,266.5 244.833,266.5 247.5,266.5 Z"/></g>
<g><path style="opacity:1" fill="#a3823f" d="M 339.5,236.5 C 338.163,235.685 337.163,234.518 336.5,233C 333.854,232.503 331.187,232.336 328.5,232.5C 328.481,238.132 331.148,241.798 336.5,243.5C 337.736,245.311 337.736,247.144 336.5,249C 338.644,255.261 339.81,261.427 340,267.5C 340.667,266.167 341.667,265.167 343,264.5C 343.832,269.197 346.332,272.53 350.5,274.5C 349.833,275.167 349.167,275.833 348.5,276.5C 349.333,278.167 350.167,279.833 351,281.5C 353.041,282.423 355.208,282.756 357.5,282.5C 357.64,280.876 356.973,279.71 355.5,279C 356.816,277.022 356.316,275.522 354,274.5C 352.376,269.666 351.209,264.666 350.5,259.5C 354.608,266.862 358.275,274.529 361.5,282.5C 357.541,283.66 353.541,283.827 349.5,283C 347.383,277.931 344.883,273.098 342,268.5C 340.296,273.403 338.463,278.237 336.5,283C 332.5,283.667 328.5,283.667 324.5,283C 326.657,279.184 328.657,275.351 330.5,271.5C 332.213,266.404 334.213,261.404 336.5,256.5C 332.764,247.796 329.097,239.13 325.5,230.5C 329.555,230.176 333.555,230.509 337.5,231.5C 338.456,233.075 339.123,234.742 339.5,236.5 Z"/></g>
<g><path style="opacity:1" fill="#372c14" d="M 458.5,269.5 C 459.738,271.214 460.405,273.214 460.5,275.5C 458.926,273.898 458.259,271.898 458.5,269.5 Z"/></g>
<g><path style="opacity:1" fill="#9d7e3f" d="M 433.5,239.5 C 434.29,240.609 434.79,241.942 435,243.5C 435.667,252.833 435.667,262.167 435,271.5C 434.241,274.785 432.908,277.785 431,280.5C 429.89,282.037 428.39,282.703 426.5,282.5C 426.5,281.5 426.5,280.5 426.5,279.5C 427.675,279.719 428.675,279.386 429.5,278.5C 428.585,277.672 427.919,276.672 427.5,275.5C 428.833,273.5 430.167,271.5 431.5,269.5C 434.818,259.719 435.484,249.719 433.5,239.5 Z"/></g>
<g><path style="opacity:1" fill="#544325" d="M 143.5,273.5 C 142.313,275.975 140.313,276.975 137.5,276.5C 136.833,276.5 136.5,276.167 136.5,275.5C 139.108,275.6 141.442,274.933 143.5,273.5 Z"/></g>
<g><path style="opacity:1" fill="#bc9039" d="M 330.5,271.5 C 332.258,271.123 333.925,270.456 335.5,269.5C 336.415,270.328 337.081,271.328 337.5,272.5C 336.926,275.177 336.259,277.843 335.5,280.5C 332.725,282.607 329.725,282.941 326.5,281.5C 329.335,278.88 330.668,275.547 330.5,271.5 Z"/></g>
<g><path style="opacity:1" fill="#876f44" d="M 460.5,275.5 C 461.906,275.973 462.573,276.973 462.5,278.5C 463.234,279.708 463.567,281.041 463.5,282.5C 467.012,283.055 470.012,282.388 472.5,280.5C 473.797,281.849 473.63,283.182 472,284.5C 468.924,283.712 465.758,283.212 462.5,283C 461.446,280.618 460.779,278.118 460.5,275.5 Z"/></g>
<g><path style="opacity:1" fill="#75643f" d="M 367.5,230.5 C 367.17,248.008 367.503,265.341 368.5,282.5C 371.5,282.5 374.5,282.5 377.5,282.5C 374.038,283.482 370.371,283.815 366.5,283.5C 366.17,265.659 366.503,247.992 367.5,230.5 Z"/></g>
<g><path style="opacity:1" fill="#af8a3f" d="M 407.5,234.5 C 403.764,241.508 403.764,248.508 407.5,255.5C 404.027,262.218 403.527,269.218 406,276.5C 406.694,275.182 407.527,274.349 408.5,274C 407.265,268.777 407.265,263.943 408.5,259.5C 409.298,261.078 409.798,262.744 410,264.5C 410.333,260.167 410.667,255.833 411,251.5C 411.383,250.944 411.883,250.611 412.5,250.5C 412.288,258.292 413.121,265.959 415,273.5C 418.626,276.386 421.459,275.719 423.5,271.5C 424.825,267.724 425.491,263.557 425.5,259C 425.499,254.653 425.166,250.486 424.5,246.5C 423.512,243.924 422.512,241.257 421.5,238.5C 424.888,237.835 425.888,238.835 424.5,241.5C 426.402,252.04 427.069,262.706 426.5,273.5C 425.5,273.5 424.5,273.5 423.5,273.5C 423.286,275.144 423.62,276.644 424.5,278C 422.102,279.018 419.769,280.185 417.5,281.5C 420.428,282.484 423.428,282.817 426.5,282.5C 426.389,283.117 426.056,283.617 425.5,284C 416.333,286.619 409.166,284.119 404,276.5C 400.946,263.812 400.946,251.146 404,238.5C 404.498,236.456 405.665,235.122 407.5,234.5 Z M 421.5,238.5 C 422.512,241.257 423.512,243.924 424.5,246.5C 424.705,254.867 424.371,263.2 423.5,271.5C 421.459,275.719 418.626,276.386 415,273.5C 413.121,265.959 412.288,258.292 412.5,250.5C 413.076,246.768 414.243,243.102 416,239.5C 417.699,238.594 419.533,238.261 421.5,238.5 Z"/></g>
<g><path style="opacity:1" fill="#614e30" d="M 424.5,246.5 C 425.166,250.486 425.499,254.653 425.5,259C 425.491,263.557 424.825,267.724 423.5,271.5C 424.371,263.2 424.705,254.867 424.5,246.5 Z"/></g>
<g><path style="opacity:1" fill="#856c43" d="M 128.5,281.5 C 131.95,282.91 135.616,283.576 139.5,283.5C 139.5,284.5 139.5,285.5 139.5,286.5C 135.701,285.143 132.034,283.476 128.5,281.5 Z"/></g>
<g><path style="opacity:1" fill="#9a7f46" d="M 231.5,277.5 C 231.141,279.371 230.141,280.871 228.5,282C 222.724,284.394 216.724,285.061 210.5,284C 207.405,283.065 205.071,281.231 203.5,278.5C 205.801,279.06 208.134,279.56 210.5,280C 209.167,280.667 209.167,281.333 210.5,282C 215.921,282.839 221.254,282.506 226.5,281C 227.509,278.828 229.176,277.662 231.5,277.5 Z"/></g>
<g><path style="opacity:1" fill="#917941" d="M 240.5,272.5 C 241.222,272.918 241.722,273.584 242,274.5C 242.333,274.167 242.667,273.833 243,273.5C 243.622,276.585 245.122,279.085 247.5,281C 253.791,282.83 260.124,282.996 266.5,281.5C 265.4,282.558 264.066,283.392 262.5,284C 255.079,285.784 248.579,284.284 243,279.5C 241.589,277.35 240.755,275.016 240.5,272.5 Z"/></g>
<g><path style="opacity:1" fill="#967f4c" d="M 147.5,282.5 C 147.833,282.5 148.167,282.5 148.5,282.5C 148.414,283.496 148.748,284.329 149.5,285C 151.81,285.497 154.143,285.663 156.5,285.5C 156.5,288.167 156.5,290.833 156.5,293.5C 152.486,293.666 148.486,293.499 144.5,293C 142.314,291.588 140.648,289.755 139.5,287.5C 141.824,287.662 143.491,288.828 144.5,291C 147.442,292.124 150.442,292.458 153.5,292C 154.517,290.951 154.684,289.784 154,288.5C 152.352,287.283 150.519,286.45 148.5,286C 147.663,284.989 147.33,283.822 147.5,282.5 Z"/></g>
<g><path style="opacity:1" fill="#977e49" d="M 226.5,313.5 C 225.532,311.393 225.198,309.059 225.5,306.5C 224.167,306.5 222.833,306.5 221.5,306.5C 221.768,308.099 221.434,309.432 220.5,310.5C 220.439,308.408 219.439,306.908 217.5,306C 223.157,305.501 228.824,305.334 234.5,305.5C 234.5,307.167 234.5,308.833 234.5,310.5C 232.408,310.439 230.908,309.439 230,307.5C 228.989,308.337 227.822,308.67 226.5,308.5C 226.5,310.167 226.5,311.833 226.5,313.5 Z"/></g>
<g><path style="opacity:1" fill="#af8c45" d="M 279.5,306.5 C 284.65,305.349 289.984,305.183 295.5,306C 297.635,309.378 297.301,312.711 294.5,316C 295.885,319.785 298.218,322.785 301.5,325C 298.833,325.667 296.167,325.667 293.5,325C 291.57,322.742 290.07,320.242 289,317.5C 287.024,320.254 287.524,322.588 290.5,324.5C 286.878,325.659 283.211,325.825 279.5,325C 282.041,322.251 283.041,318.918 282.5,315C 282.167,312.5 281.833,310 281.5,307.5C 280.817,307.137 280.15,306.804 279.5,306.5 Z M 288.5,308.5 C 292.106,309.815 292.272,311.815 289,314.5C 288.505,312.527 288.338,310.527 288.5,308.5 Z"/></g>
<g><path style="opacity:1" fill="#b69550" d="M 263.5,320.5 C 264.486,316.03 264.819,311.363 264.5,306.5C 266.179,306.285 267.179,306.952 267.5,308.5C 267.66,313.566 267.16,318.566 266,323.5C 261.418,326.912 256.585,327.245 251.5,324.5C 250.473,318.871 249.807,313.205 249.5,307.5C 248.325,307.719 247.325,307.386 246.5,306.5C 250.167,305.167 253.833,305.167 257.5,306.5C 256.675,307.386 255.675,307.719 254.5,307.5C 254.334,311.846 254.501,316.179 255,320.5C 257.83,323.101 260.663,323.101 263.5,320.5 Z"/></g>
<g><path style="opacity:1" fill="#bc983b" d="M 381.5,308.5 C 382.338,308.842 382.672,309.508 382.5,310.5C 382.5,313.167 382.5,315.833 382.5,318.5C 380.821,318.715 379.821,318.048 379.5,316.5C 379.218,315.222 378.551,314.222 377.5,313.5C 376.197,310.881 376.697,308.547 379,306.5C 379.708,307.381 380.542,308.047 381.5,308.5 Z"/></g>
<g><path style="opacity:1" fill="#967e50" d="M 201.5,315.5 C 201.611,314.883 201.944,314.383 202.5,314C 184.167,313.833 165.833,313.667 147.5,313.5C 128.821,313.5 110.488,314.167 92.5,315.5C 90.9519,315.179 90.2852,314.179 90.5,312.5C 128.833,312.5 167.167,312.5 205.5,312.5C 205.5,313.5 205.5,314.5 205.5,315.5C 204.167,315.5 202.833,315.5 201.5,315.5 Z"/></g>
<g><path style="opacity:1" fill="#7a5d31" d="M 267.5,308.5 C 267.179,306.952 266.179,306.285 264.5,306.5C 264.819,311.363 264.486,316.03 263.5,320.5C 263.826,316.116 263.492,311.783 262.5,307.5C 261.692,307.192 261.025,306.692 260.5,306C 263.882,305.176 267.216,305.343 270.5,306.5C 269.643,307.425 268.643,308.092 267.5,308.5 Z"/></g>
<g><path style="opacity:1" fill="#988053" d="M 399.5,313.5 C 435.663,312.502 471.996,312.168 508.5,312.5C 508.5,313.5 508.5,314.5 508.5,315.5C 506.833,315.5 505.167,315.5 503.5,315.5C 503.918,314.778 504.584,314.278 505.5,314C 470.168,313.5 434.835,313.333 399.5,313.5 Z"/></g>
<g><path style="opacity:1" fill="#bf944b" d="M 201.5,315.5 C 165.167,315.5 128.833,315.5 92.5,315.5C 110.488,314.167 128.821,313.5 147.5,313.5C 165.833,313.667 184.167,313.833 202.5,314C 201.944,314.383 201.611,314.883 201.5,315.5 Z"/></g>
<g><path style="opacity:1" fill="#c19a44" d="M 226.5,313.5 C 227.791,313.737 228.791,313.404 229.5,312.5C 230.649,312.791 231.316,313.624 231.5,315C 231.316,316.376 230.649,317.209 229.5,317.5C 229.5,317.167 229.5,316.833 229.5,316.5C 228.432,315.566 227.099,315.232 225.5,315.5C 225.5,318.5 225.5,321.5 225.5,324.5C 224.127,324.657 222.793,324.49 221.5,324C 222.822,319.733 222.822,315.566 221.5,311.5C 220.833,311.5 220.5,311.167 220.5,310.5C 221.434,309.432 221.768,308.099 221.5,306.5C 222.833,306.5 224.167,306.5 225.5,306.5C 225.198,309.059 225.532,311.393 226.5,313.5 Z"/></g>
<g><path style="opacity:1" fill="#756748" d="M 229.5,312.5 C 230.209,311.596 231.209,311.263 232.5,311.5C 232.244,313.792 232.577,315.959 233.5,318C 232.119,319.534 230.786,319.368 229.5,317.5C 230.649,317.209 231.316,316.376 231.5,315C 231.316,313.624 230.649,312.791 229.5,312.5 Z"/></g>
<g><path style="opacity:1" fill="#bd9249" d="M 399.5,313.5 C 434.835,313.333 470.168,313.5 505.5,314C 504.584,314.278 503.918,314.778 503.5,315.5C 470.617,315.213 437.95,315.546 405.5,316.5C 402.874,316.378 400.874,315.378 399.5,313.5 Z"/></g>
<g><path style="opacity:1" fill="#b49148" d="M 350.5,319.5 C 350.286,321.144 350.62,322.644 351.5,324C 349.866,324.494 348.199,324.66 346.5,324.5C 346.5,323.167 346.5,321.833 346.5,320.5C 346.665,317.15 346.498,313.817 346,310.5C 345.56,308.924 344.727,307.59 343.5,306.5C 348.467,305.338 353.467,305.171 358.5,306C 360.504,308.841 361.004,312.007 360,315.5C 357.032,317.511 353.866,318.844 350.5,319.5 Z M 351.5,308.5 C 352.5,308.5 353.5,308.5 354.5,308.5C 356.145,311.671 355.478,314.004 352.5,315.5C 351.526,313.257 351.192,310.924 351.5,308.5 Z"/></g>
<g><path style="opacity:1" fill="#a08446" d="M 381.5,308.5 C 380.542,308.047 379.708,307.381 379,306.5C 376.697,308.547 376.197,310.881 377.5,313.5C 376.596,314.209 376.263,315.209 376.5,316.5C 377.5,316.5 378.5,316.5 379.5,316.5C 379.821,318.048 380.821,318.715 382.5,318.5C 382.5,315.833 382.5,313.167 382.5,310.5C 384.072,314.026 385.572,317.693 387,321.5C 388.167,322.667 389.333,323.833 390.5,325C 386.789,325.825 383.122,325.659 379.5,324.5C 381.848,323.14 382.015,321.473 380,319.5C 379,320.833 378,320.833 377,319.5C 376.167,320.333 375.333,321.167 374.5,322C 375.357,322.689 376.023,323.522 376.5,324.5C 373.5,325.833 370.5,325.833 367.5,324.5C 368.76,323.618 369.926,322.618 371,321.5C 373.112,316.272 374.946,310.939 376.5,305.5C 379.469,304.155 381.136,305.155 381.5,308.5 Z M 377.5,313.5 C 378.551,314.222 379.218,315.222 379.5,316.5C 378.5,316.5 377.5,316.5 376.5,316.5C 376.263,315.209 376.596,314.209 377.5,313.5 Z"/></g>
<g><path style="opacity:1" fill="#a58444" d="M 319.5,304.5 C 329.259,304.635 333.426,309.635 332,319.5C 330,324.339 326.333,326.672 321,326.5C 313.901,326.235 310.401,322.568 310.5,315.5C 310.476,309.158 313.476,305.491 319.5,304.5 Z M 319.5,307.5 C 324.693,307.82 327.026,310.654 326.5,316C 326.677,319.831 325.011,322.331 321.5,323.5C 319.234,323.069 317.734,321.736 317,319.5C 316.333,316.5 316.333,313.5 317,310.5C 317.698,309.309 318.531,308.309 319.5,307.5 Z"/></g>
<g><path style="opacity:1" fill="#a48349" d="M 221.5,311.5 C 222.822,315.566 222.822,319.733 221.5,324C 222.793,324.49 224.127,324.657 225.5,324.5C 225.5,321.5 225.5,318.5 225.5,315.5C 227.099,315.232 228.432,315.566 229.5,316.5C 228.5,316.5 227.5,316.5 226.5,316.5C 226.5,318.5 226.5,320.5 226.5,322.5C 229.739,322.587 232.739,321.92 235.5,320.5C 235.5,322.167 235.5,323.833 235.5,325.5C 229.794,325.829 224.128,325.495 218.5,324.5C 219.242,323.713 220.075,323.047 221,322.5C 221.499,318.848 221.665,315.182 221.5,311.5 Z"/></g>
<g><path style="opacity:1" fill="#877143" d="M 350.5,319.5 C 351.198,321.667 352.531,323.5 354.5,325C 350.5,325.667 346.5,325.667 342.5,325C 344.286,323.804 345.619,322.304 346.5,320.5C 346.5,321.833 346.5,323.167 346.5,324.5C 348.199,324.66 349.866,324.494 351.5,324C 350.62,322.644 350.286,321.144 350.5,319.5 Z"/></g>
</svg>
